M48
; DRILL file {KiCad 9.0.4} date 2026-02-17T15:50:32+0000
; FORMAT={-:-/ absolute / metric / decimal}
; #@! TF.CreationDate,2026-02-17T15:50:32+00:00
; #@! TF.GenerationSoftware,Kicad,Pcbnew,9.0.4
; #@! TF.FileFunction,Plated,1,4,PTH
FMAT,2
METRIC
; #@! TA.AperFunction,Plated,PTH,ComponentDrill
T1C0.200
; #@! TA.AperFunction,Plated,PTH,ViaDrill
T2C0.300
; #@! TA.AperFunction,Plated,PTH,ComponentDrill
T3C0.500
; #@! TA.AperFunction,Plated,PTH,ComponentDrill
T4C0.600
; #@! TA.AperFunction,Plated,PTH,ComponentDrill
T5C0.800
; #@! TA.AperFunction,Plated,PTH,ComponentDrill
T6C0.910
; #@! TA.AperFunction,Plated,PTH,ComponentDrill
T7C0.980
; #@! TA.AperFunction,Plated,PTH,ComponentDrill
T8C1.000
; #@! TA.AperFunction,Plated,PTH,ComponentDrill
T9C1.016
; #@! TA.AperFunction,Plated,PTH,ComponentDrill
T10C1.020
; #@! TA.AperFunction,Plated,PTH,ComponentDrill
T11C1.300
; #@! TA.AperFunction,Plated,PTH,ComponentDrill
T12C2.750
%
G90
G05
T1
X117.45Y-46.69
X117.45Y-48.09
X118.15Y-45.99
X118.15Y-47.39
X118.15Y-48.79
X118.85Y-46.69
X118.85Y-48.09
X119.55Y-45.99
X119.55Y-47.39
X119.55Y-48.79
X120.25Y-46.69
X120.25Y-48.09
T2
X90.1Y-44.5
X90.25Y-137.25
X90.46Y-110.89
X90.75Y-121.5
X91.5Y-40.575
X91.5Y-132.0
X91.5Y-134.75
X91.5Y-33.275
X92.0Y-47.8
X92.5Y-123.25
X93.0Y-52.6
X93.4Y-61.2
X93.5Y-62.75
X93.6Y-54.0
X93.6Y-74.0
X93.6Y-125.4
X93.75Y-58.9
X93.82Y-98.76
X94.5Y-42.5
X95.2Y-50.0
X95.2Y-51.25
X95.2Y-73.1
X95.2Y-74.3
X95.25Y-69.75
X95.25Y-137.0
X95.5Y-71.75
X95.66Y-67.36
X95.7Y-38.3
X95.8Y-43.65
X95.85Y-76.56
X95.875Y-42.854
X95.91Y-78.9
X95.96Y-86.02
X96.06Y-81.28
X96.14Y-83.62
X96.75Y-128.75
X96.8Y-106.59
X97.05Y-134.2
X97.25Y-43.5
X97.5Y-90.0
X97.5Y-91.5
X97.5Y-93.5
X98.4Y-98.8
X98.6Y-53.0
X98.64Y-86.1
X98.68Y-83.53
X99.0Y-43.6
X99.0Y-79.5
X99.0Y-97.0
X99.153Y-50.815
X99.2Y-50.0
X99.2Y-72.0
X99.5Y-90.0
X99.6Y-48.5
X99.875Y-130.775
X100.0Y-97.0
X100.4Y-64.6
X100.5Y-57.6
X100.9Y-67.73
X100.9Y-69.73
X101.0Y-43.4
X101.0Y-97.0
X101.0Y-125.8
X101.2Y-80.2
X101.2Y-124.6
X101.5Y-106.5
X101.75Y-119.75
X101.75Y-123.5
X102.2Y-73.0
X102.2Y-74.2
X102.2Y-80.2
X102.35Y-46.55
X102.4Y-130.551
X102.56Y-75.81
X102.6Y-90.8
X102.8Y-106.5
X102.9Y-102.0
X102.95Y-61.1
X103.0Y-132.8
X103.0Y-133.75
X103.0Y-135.0
X103.0Y-136.25
X103.55Y-130.677
X104.0Y-70.175
X104.0Y-57.6
X104.0Y-119.75
X104.0Y-123.5
X104.1Y-106.5
X104.5Y-126.75
X104.85Y-133.75
X104.85Y-135.0
X104.85Y-136.25
X105.1Y-126.15
X105.225Y-83.975
X105.25Y-87.75
X105.25Y-90.0
X105.3Y-46.7
X105.4Y-106.5
X105.5Y-45.0
X105.6Y-55.2
X105.6Y-65.0
X105.75Y-123.5
X106.0Y-119.75
X106.125Y-126.925
X106.175Y-78.5
X106.4Y-59.2
X106.5Y-132.8
X106.5Y-133.75
X106.5Y-135.0
X106.5Y-136.25
X106.53Y-130.65
X106.7Y-106.5
X106.8Y-102.0
X107.25Y-119.75
X107.25Y-123.5
X107.359Y-70.622
X107.4Y-130.65
X107.65Y-83.128
X107.9Y-63.6
X108.0Y-75.5
X108.0Y-118.4
X108.25Y-82.41
X108.25Y-124.25
X108.4Y-94.8
X109.0Y-49.2
X109.25Y-118.5
X109.25Y-134.25
X109.4Y-103.8
X109.4Y-129.54
X109.726Y-83.2
X109.75Y-61.05
X109.8Y-107.2
X109.85Y-70.75
X110.0Y-66.0
X110.0Y-89.75
X110.05Y-43.5
X110.05Y-58.4
X110.385Y-81.4
X110.5Y-86.625
X110.5Y-121.5
X110.8Y-65.2
X110.85Y-83.4
X111.0Y-123.5
X111.5Y-121.5
X111.65Y-83.444
X111.8Y-61.95
X112.0Y-87.0
X112.0Y-93.0
X112.2Y-117.8
X112.25Y-136.5
X112.5Y-83.4
X112.6Y-103.8
X112.6Y-107.2
X112.75Y-132.5
X112.825Y-71.875
X113.0Y-70.462
X113.0Y-73.675
X113.05Y-48.55
X113.1Y-47.3
X113.25Y-123.0
X113.4Y-46.1
X113.5Y-43.1
X113.563Y-85.957
X113.6Y-44.0
X113.85Y-72.35
X114.0Y-52.5
X114.0Y-81.0
X114.0Y-118.8
X114.4Y-107.2
X114.4Y-118.0
X114.6Y-56.1
X114.7Y-46.1
X114.875Y-80.375
X115.0Y-86.0
X115.2Y-63.35
X115.75Y-52.75
X116.0Y-78.0
X116.0Y-101.0
X116.0Y-102.5
X116.0Y-105.5
X116.0Y-107.5
X116.0Y-82.8
X116.6Y-86.6
X116.65Y-81.85
X117.15Y-79.85
X117.2Y-52.6
X117.2Y-59.0
X117.725Y-73.575
X117.75Y-121.95
X117.754Y-72.546
X118.006Y-77.651
X118.2Y-76.5
X118.25Y-80.5
X118.35Y-71.8
X118.375Y-63.6
X118.445Y-58.745
X118.65Y-68.9
X118.8Y-54.7
X119.5Y-68.1
X119.5Y-52.75
X119.7Y-58.7
X120.15Y-40.6
X120.5Y-69.0
X120.65Y-63.7
X120.75Y-70.5
X120.85Y-86.7
X121.0Y-58.8
X121.12Y-79.62
X121.5Y-122.0
X121.518Y-72.037
X121.86Y-74.56
X122.0Y-70.75
X122.0Y-101.0
X122.0Y-107.5
X122.1Y-131.2
X122.25Y-63.6
X122.255Y-58.755
X122.3Y-67.9
X122.475Y-62.625
X122.587Y-84.849
X122.7Y-46.15
X123.22Y-79.3
X123.25Y-68.75
X123.56Y-84.76
X124.2Y-62.8
X124.5Y-75.9
X124.85Y-81.05
X124.85Y-131.25
X124.9Y-70.9
X124.95Y-61.989
X125.25Y-84.0
X125.27Y-92.0
X125.465Y-52.85
X125.65Y-51.1
X126.01Y-45.91
X126.75Y-63.45
X127.0Y-72.5
X127.0Y-101.0
X127.0Y-107.5
X127.1Y-45.9
X127.2Y-119.6
X127.4Y-84.0
X127.7Y-61.8
X128.0Y-64.75
X128.0Y-72.5
X128.1Y-66.0
X128.125Y-63.625
X128.2Y-115.2
X128.25Y-67.6
X128.35Y-66.76
X128.44Y-82.35
X128.5Y-57.25
X128.524Y-71.895
X128.9Y-80.7
X129.282Y-72.225
X129.35Y-73.801
X129.8Y-111.2
X130.7Y-132.45
X130.8Y-119.8
X130.872Y-55.25
X131.151Y-82.95
X131.2Y-83.749
X131.4Y-115.2
X131.652Y-74.837
X132.0Y-69.25
X132.75Y-86.2
X133.4Y-80.41
X134.99Y-72.59
X135.2Y-117.6
X136.25Y-131.0
X136.75Y-56.349
X137.1Y-115.1
X138.4Y-83.0
X138.517Y-64.3
X139.4Y-103.4
X139.45Y-131.05
X140.0Y-106.0
X140.4Y-71.7
X140.6Y-107.8
X140.6Y-108.8
X140.6Y-109.6
X141.0Y-73.6
X141.0Y-117.5
X141.2Y-103.4
X141.537Y-45.7
X141.7Y-68.3
X141.815Y-42.585
X142.2Y-87.2
X142.4Y-72.4
X142.75Y-81.75
X142.8Y-77.0
X142.825Y-42.675
X143.4Y-87.2
X143.6Y-70.4
X143.615Y-42.165
X143.8Y-135.8
X144.6Y-100.25
X145.0Y-82.75
X145.0Y-87.2
X146.05Y-133.75
X146.4Y-52.2
X146.4Y-87.2
X146.495Y-39.96
X146.675Y-43.3
X147.095Y-40.557
X147.5Y-105.4
X147.5Y-107.5
X147.8Y-118.5
X148.04Y-42.64
X149.75Y-71.5
X149.925Y-44.475
X150.411Y-82.6
X151.0Y-41.5
X151.6Y-66.8
X151.8Y-44.0
X151.8Y-93.6
X152.0Y-74.0
X152.2Y-49.7
X152.5Y-104.9
X152.5Y-105.7
X152.5Y-106.4
X152.5Y-107.1
X152.561Y-124.8
X154.5Y-78.5
X154.6Y-130.6
X154.75Y-105.5
X155.06Y-106.74
X155.5Y-104.25
X157.0Y-76.8
X157.0Y-132.0
X158.0Y-100.0
X158.0Y-123.5
X158.0Y-132.0
X159.0Y-100.0
X159.0Y-123.5
X159.0Y-132.0
X160.0Y-100.0
X160.0Y-123.5
X160.0Y-132.0
X160.249Y-92.639
X161.0Y-100.0
X161.0Y-106.0
X161.0Y-123.5
X161.0Y-132.0
X161.4Y-66.6
X162.0Y-132.0
X162.6Y-52.286
X162.75Y-120.0
X162.8Y-94.6
X163.0Y-132.0
X163.2Y-72.8
X163.5Y-82.5
X163.5Y-121.0
X163.636Y-52.336
X164.0Y-66.5
X164.0Y-132.0
X164.1Y-64.3
X164.4Y-48.65
X164.4Y-57.0
X164.5Y-44.0
X165.2Y-69.3
X165.3Y-49.1
X165.4Y-119.8
X165.7Y-114.1
X166.0Y-72.8
X166.19Y-50.49
X166.2Y-42.0
X167.2Y-49.8
X167.2Y-94.6
X167.65Y-43.8
X168.2Y-93.0
X169.0Y-124.0
X169.0Y-125.0
X169.0Y-126.0
X169.0Y-127.0
X169.0Y-128.0
X169.0Y-129.0
X169.0Y-130.0
X169.0Y-131.0
X169.0Y-132.0
X169.1Y-57.0
X169.25Y-45.25
X170.0Y-84.4
X170.9Y-68.9
X171.0Y-54.3
X171.2Y-111.6
X171.4Y-49.2
X172.1Y-52.009
X172.2Y-95.8
X172.2Y-112.0
X172.4Y-46.2
X172.6Y-87.2
X173.6Y-38.6
X173.6Y-94.6
X174.0Y-50.3
X174.3Y-57.0
X174.4Y-51.8
X174.5Y-53.75
X174.85Y-55.2
X175.0Y-49.2
X175.8Y-54.4
X176.6Y-38.8
X176.7Y-52.7
X177.0Y-105.4
X177.0Y-123.2
X177.1Y-58.8
X177.6Y-100.0
X177.8Y-49.205
X177.8Y-93.4
X177.8Y-113.4
X177.8Y-132.925
X177.9Y-50.6
X178.0Y-41.4
X178.8Y-54.5
X179.0Y-77.6
X179.2Y-39.0
X179.6Y-58.8
X179.6Y-107.2
X180.0Y-76.2
X180.4Y-67.0
X180.8Y-118.4
X181.9Y-58.8
X182.3Y-52.0
X182.8Y-132.925
X183.0Y-67.2
X183.0Y-112.6
X185.6Y-94.6
X186.1Y-52.6
X186.4Y-107.8
X186.8Y-51.4
X187.2Y-101.8
X188.0Y-100.0
X188.72Y-92.7
X189.125Y-55.375
X189.2Y-109.4
X189.6Y-92.8
X191.8Y-84.2
X192.2Y-51.15
X192.25Y-48.25
X192.8Y-103.6
X193.3Y-73.3
X193.4Y-72.1
X194.0Y-79.4
X196.1Y-92.0
X196.2Y-113.8
X196.6Y-42.5
X196.6Y-97.8
X196.7Y-39.45
X196.7Y-41.0
X197.0Y-92.8
X197.4Y-121.6
X197.4Y-127.8
X199.3Y-69.6
X199.6Y-127.8
X200.2Y-35.0
X200.2Y-59.0
X200.3Y-37.3
X201.2Y-59.9
X201.4Y-92.7
X201.5Y-56.25
X202.5Y-52.55
X202.55Y-57.15
X203.4Y-91.4
X203.8Y-94.4
X204.4Y-84.2
X204.4Y-103.2
X204.8Y-53.2
X205.4Y-45.7
X205.4Y-106.6
X205.6Y-42.65
X205.6Y-134.4
X205.6Y-136.0
X206.0Y-84.2
X206.2Y-90.4
X206.75Y-52.8
X207.783Y-45.702
X208.125Y-44.875
X208.25Y-43.25
X208.6Y-52.8
X210.0Y-94.8
X211.0Y-59.4
X211.5Y-45.25
X212.4Y-63.6
X212.66Y-69.06
X212.7Y-76.2
X212.8Y-74.363
X213.6Y-61.7
X213.6Y-93.2
X213.8Y-47.8
X214.4Y-106.0
X214.8Y-109.2
X215.4Y-60.0
X216.0Y-134.2
X216.0Y-135.8
X216.3Y-47.25
X216.5Y-45.25
X216.8Y-44.0
X216.99Y-67.76
X217.25Y-53.5
X217.9Y-82.9
X218.3Y-68.0
X218.337Y-99.412
X219.2Y-102.337
X219.35Y-36.25
X221.0Y-68.2
X221.0Y-69.8
X221.0Y-71.2
X221.2Y-83.0
X221.625Y-81.8
X222.0Y-66.8
X222.2Y-102.35
X222.25Y-104.75
X223.2Y-100.25
X224.25Y-101.605
X224.7Y-99.6
X225.3Y-87.3
X225.4Y-88.6
X226.2Y-80.0
X226.6Y-78.0
X227.75Y-104.6
X228.35Y-43.15
X228.4Y-63.2
X228.6Y-72.4
X228.75Y-114.5
X229.0Y-40.75
X229.2Y-83.8
X229.6Y-111.2
X229.6Y-113.0
X229.6Y-115.8
X229.6Y-117.4
X229.8Y-98.6
X229.85Y-78.0
X230.2Y-45.6
X230.2Y-52.4
X230.2Y-70.2
X230.4Y-66.3
X230.4Y-68.1
X230.5Y-76.951
X231.0Y-99.5
X231.0Y-101.0
X231.0Y-102.0
X231.2Y-84.0
X232.0Y-44.0
X232.8Y-66.3
X232.8Y-68.2
X233.0Y-119.6
X233.2Y-85.6
X233.637Y-44.362
X234.0Y-119.6
X234.15Y-67.6
X234.8Y-68.4
X235.0Y-84.25
X235.0Y-85.5
X235.0Y-119.6
X235.8Y-119.6
X235.9Y-106.4
X236.0Y-52.6
X236.0Y-70.0
X236.8Y-119.6
X237.4Y-71.2
X237.4Y-107.2
X238.0Y-119.6
X238.4Y-70.0
X239.0Y-119.6
X239.6Y-49.6
X239.8Y-46.4
X240.0Y-112.25
X240.75Y-110.25
X241.987Y-103.112
X243.0Y-44.25
X243.25Y-36.0
X243.7Y-102.3
X243.8Y-73.7
X243.8Y-74.9
X243.9Y-59.8
X243.9Y-72.5
X244.0Y-83.8
X244.0Y-85.8
X244.0Y-87.3
X245.0Y-41.0
X245.0Y-47.25
X245.4Y-73.1
X246.6Y-86.6
X246.9Y-43.0
X247.25Y-32.8
X247.7Y-58.0
X248.0Y-35.4
X248.0Y-40.4
X248.2Y-90.4
X248.2Y-91.6
X248.8Y-96.9
X248.8Y-98.7
X249.0Y-81.2
X249.0Y-82.2
X249.1Y-74.3
X250.1Y-98.7
X251.1Y-74.0
X251.2Y-75.9
X252.2Y-79.3
X252.2Y-80.5
X252.6Y-42.0
T3
X111.5Y-90.0
X112.5Y-90.0
T5
X137.0Y-74.49
X137.0Y-76.49
X137.0Y-78.49
X137.0Y-80.49
X139.0Y-74.49
X139.0Y-76.49
X139.0Y-78.49
X139.0Y-80.49
X146.0Y-34.75
X146.0Y-36.75
X148.0Y-34.75
X148.0Y-36.75
X150.0Y-34.75
X150.0Y-36.75
X152.0Y-34.75
X152.0Y-36.75
X154.0Y-34.75
X154.0Y-36.75
X156.0Y-34.75
X156.0Y-36.75
X158.0Y-34.75
X158.0Y-36.75
X160.0Y-34.75
X160.0Y-36.75
X162.0Y-34.75
X162.0Y-36.75
X164.0Y-34.75
X164.0Y-36.75
X166.0Y-34.75
X166.0Y-36.75
X168.0Y-34.75
X168.0Y-36.75
X170.0Y-34.75
X170.0Y-36.75
X172.0Y-34.75
X172.0Y-36.75
X178.8Y-34.9
X178.8Y-36.9
X180.8Y-34.9
X180.8Y-36.9
X182.8Y-34.9
X182.8Y-36.9
X184.8Y-34.9
X184.8Y-36.9
X186.8Y-34.9
X186.8Y-36.9
X188.8Y-36.9
X188.8Y-34.9
X190.8Y-34.9
X190.8Y-36.9
X226.0Y-35.0
X226.0Y-37.0
X228.0Y-35.0
X228.0Y-37.0
X230.0Y-37.0
X230.0Y-35.0
X232.0Y-35.0
X232.0Y-37.0
X234.0Y-35.0
X234.0Y-37.0
X236.0Y-35.0
X236.0Y-37.0
X238.0Y-37.0
X238.0Y-35.0
X240.0Y-35.0
X240.0Y-37.0
T6
X245.57Y-74.5
X245.57Y-76.5
X245.57Y-78.5
X245.57Y-80.5
X245.57Y-82.5
X245.57Y-84.5
X245.57Y-86.5
X245.57Y-88.5
X245.57Y-90.5
X245.57Y-92.5
X245.57Y-94.5
X245.57Y-96.5
X245.57Y-98.5
X249.97Y-75.5
X249.97Y-77.5
X249.97Y-79.5
X249.97Y-81.5
X249.97Y-83.5
X249.97Y-85.5
X249.97Y-87.5
X249.97Y-89.5
X249.97Y-91.5
X249.97Y-93.5
X249.97Y-95.5
X249.97Y-97.5
T7
X226.04Y-126.54
T8
X93.4Y-77.46
X93.4Y-80.0
X93.4Y-82.54
X93.4Y-85.08
X185.5Y-124.3
X185.5Y-126.5
X185.5Y-130.5
X187.5Y-124.3
X187.5Y-126.5
X187.5Y-130.5
X189.5Y-124.3
X189.5Y-126.5
X189.5Y-130.5
X191.5Y-124.3
X191.5Y-126.5
X191.5Y-130.5
X193.5Y-124.3
X193.5Y-126.5
X195.5Y-124.3
X195.5Y-126.5
X197.5Y-124.3
X197.5Y-126.5
X199.5Y-124.3
X199.5Y-126.5
X201.5Y-124.3
X201.5Y-126.5
X203.5Y-124.3
X203.5Y-126.5
X205.5Y-124.3
X205.5Y-126.5
X207.5Y-124.3
X207.5Y-126.5
X207.5Y-130.5
X209.5Y-124.3
X209.5Y-126.5
X209.5Y-130.5
X211.5Y-124.3
X211.5Y-126.5
X211.5Y-130.5
X213.5Y-124.3
X213.5Y-126.5
X213.5Y-130.5
T9
X140.28Y-60.5
X140.28Y-63.04
X142.82Y-60.5
X142.82Y-63.04
X145.36Y-60.5
X145.36Y-63.04
X147.9Y-60.5
X147.9Y-63.04
X150.44Y-60.5
X150.44Y-63.04
X152.98Y-60.5
X152.98Y-63.04
X155.52Y-63.04
X155.52Y-60.5
X158.06Y-60.5
X158.06Y-63.04
X160.6Y-60.5
X160.6Y-63.04
X163.14Y-60.5
X163.14Y-63.04
X165.68Y-60.5
X165.68Y-63.04
X168.22Y-60.5
X168.22Y-63.04
X170.76Y-60.5
X170.76Y-63.04
X173.3Y-60.5
X173.3Y-63.04
X175.84Y-60.5
X175.84Y-63.04
X178.38Y-63.04
X178.38Y-60.5
X180.92Y-60.5
X180.92Y-63.04
X183.46Y-60.5
X183.46Y-63.04
X186.0Y-60.5
X186.0Y-63.04
X188.54Y-60.5
X188.54Y-63.04
X192.1Y-66.623
X192.1Y-69.163
X194.64Y-66.623
X194.64Y-69.163
T10
X93.2Y-131.06
X93.2Y-133.6
X93.2Y-136.14
T11
X129.62Y-109.15
X129.62Y-124.39
X223.5Y-124.0
X223.5Y-129.08
X228.58Y-124.0
X228.58Y-129.08
T12
X135.41Y-61.77
X135.41Y-110.77
X193.41Y-61.77
X193.41Y-110.77
T4
G00X91.995Y-46.18
M15
G01X91.195Y-46.18
M16
G05
G00X91.995Y-54.82
M15
G01X91.195Y-54.82
M16
G05
G00X91.995Y-57.68
M15
G01X91.195Y-57.68
M16
G05
G00X91.995Y-66.32
M15
G01X91.195Y-66.32
M16
G05
G00X96.325Y-46.18
M15
G01X95.225Y-46.18
M16
G05
G00X96.325Y-54.82
M15
G01X95.225Y-54.82
M16
G05
G00X96.325Y-57.68
M15
G01X95.225Y-57.68
M16
G05
G00X96.325Y-66.32
M15
G01X95.225Y-66.32
M16
G05
G00X100.46Y-131.7
M15
G01X100.46Y-132.8
M16
G05
G00X100.46Y-136.03
M15
G01X100.46Y-136.83
M16
G05
G00X109.1Y-131.7
M15
G01X109.1Y-132.8
M16
G05
G00X109.1Y-136.03
M15
G01X109.1Y-136.83
M16
G05
M30
